<svg xmlns="http://www.w3.org/2000/svg" width="41" height="39" viewBox="0 0 41 39">
  <path id="logod" d="M62.7,40.035c-2.37-1.221-4.645-1.7-6.908-2.922A29.345,29.345,0,0,1,50.824,32.9c-.288,2.556-1.228,3.594-2.349,4.318a32.388,32.388,0,0,1-5.712,2.817C41.076,40.759,32,45.862,32,55.37,32,64.9,41.8,71.9,52.692,71.9,63.551,71.9,73,65.445,73,55.675,73,45.88,64.138,40.759,62.7,40.035Zm.267,28.4c-2.146,1.753-9.62,2.5-12.46.366-.513-.419.032-1.047.694-1.047a10.867,10.867,0,0,0,5.5,1.16A12.027,12.027,0,0,0,62.515,67.7C63.166,67.294,63.412,68.071,62.964,68.437Zm-5.819-4.588a6.906,6.906,0,0,1,3.929.113c.438.244,1.719,1.64.662,2.067-.9.366-.128-1.369-2.829-1.369a4.156,4.156,0,0,0-2.851.96c-.747.523-1.046.7-1.3.41C54.112,65.314,56.451,64.084,57.145,63.849Zm9.876,1.509c-1.623-.087-4.858-4.257-6.94-4.318-3.3-.079-11.115,7.039-17.222,3.664-4.143-2.32-1.559-9.142,5.531-9.176,5.285-.044,8.947,4.274,11.585,4.231,2.274-.026,6.6-3.646,8.734-3.646C73.908,56.112,71.2,65.646,67.021,65.358Z" transform="translate(-32 -32.9)" fill="#ff5757"/>
</svg>
