<svg xmlns="http://www.w3.org/2000/svg" width="800.301" height="381.323" viewBox="0 0 800.301 381.323">
  <g id="Group_2" data-name="Group 2" transform="translate(-1301.699 -267.966)">
    <g id="Group_1" data-name="Group 1" transform="matrix(0.921, -0.391, 0.391, 0.921, 1322.665, 391.903)">
      <g id="Group_1-2" data-name="Group 1" transform="translate(0 0)">
        <path id="Union_1" data-name="Union 1" d="M132.019,268.721c-34.312.071-69.565-13.6-96.722-37.5C4.562,204.163-12.321,167.852-12.241,128.975-12.157,88.413,7.074,49.6,40.523,22.462l13.693-11.1L29.21,5.287A56.7,56.7,0,0,1,17.735,1.548c7.58-4.2,47.162-12.8,114.864-12.943S239.873-3.1,247.456,1.062a57.3,57.3,0,0,1-11.5,3.787l-25.046,6.176,13.663,11.053c33.351,27,52.432,65.737,52.348,106.292-.081,38.872-17.123,75.253-47.986,102.438C201.657,254.832,166.336,268.649,132.019,268.721Z" transform="translate(0 0)" stroke="#fff" stroke-linejoin="round" stroke-width="8"/>
      </g>
      <g id="Path_1" data-name="Path 1" transform="translate(84.002 -7.041)">
        <path d="M 47.63360977172852 15.56034374237061 C 36.50242233276367 15.56034374237061 25.66506195068359 14.75178146362305 17.11787414550781 13.28360652923584 C 8.754524230957031 11.84700679779053 2.958648920059204 9.863393783569336 0.7979114055633545 7.698168754577637 C 0.21218641102314 7.111231327056885 -0.08420109003782272 6.524956226348877 -0.08302609622478485 5.955643653869629 C -0.08062609285116196 4.79944372177124 1.150498867034912 3.577368974685669 3.477261304855347 2.421531438827515 C 5.896498680114746 1.219768881797791 9.37247371673584 0.1348438560962677 13.80866146087646 -0.8031061291694641 C 22.98427391052246 -2.743143558502197 35.18779754638672 -3.826443672180176 48.17123794555664 -3.853468656539917 C 48.33516311645508 -3.853806018829346 48.50092315673828 -3.853981256484985 48.66446304321289 -3.853981256484985 C 59.79566192626953 -3.853981256484985 70.63302612304688 -3.045418739318848 79.18021392822266 -1.577243685722351 C 87.54356384277344 -0.1406436413526535 93.33943939208984 1.842968821525574 95.50017547607422 4.008193969726563 C 96.08589935302734 4.595131397247314 96.38228607177734 5.181394100189209 96.38109588623047 5.75071907043457 C 96.37870025634766 6.906919002532959 95.14757537841797 8.128993988037109 92.82080841064453 9.284831047058105 C 90.40158843994141 10.48659420013428 86.92559814453125 11.57151889801025 82.48942565917969 12.5094690322876 C 73.31381225585938 14.44950675964355 61.11027526855469 15.53280639648438 48.12683486938477 15.5598316192627 C 47.96290969848633 15.5601692199707 47.79714965820313 15.56034374237061 47.63360977172852 15.56034374237061 Z" stroke="none"/>
        <path d="M 48.66447830200195 -3.353991508483887 C 48.50127792358398 -3.353991508483887 48.33587646484375 -3.353818893432617 48.17227554321289 -3.353471755981445 C 35.22222137451172 -3.326525688171387 23.05504608154297 -2.247058868408203 13.91208648681641 -0.3139257431030273 C 9.517127990722656 0.6153144836425781 6.081184387207031 1.686314582824707 3.699699401855469 2.869328498840332 C 1.584739685058594 3.919928073883057 0.418914794921875 5.01636791229248 0.4169692993164063 5.956661224365234 C 0.41607666015625 6.388368129730225 0.6633148193359375 6.855461597442627 1.151824951171875 7.34498119354248 C 2.156356811523438 8.351608276367188 4.110115051269531 9.370754241943359 6.801902770996094 10.29227447509766 C 9.571701049804688 11.24051475524902 13.07098388671875 12.08114147186279 17.2025146484375 12.79083442687988 C 25.72261047363281 14.25435447692871 36.52990341186523 15.06035423278809 47.63359451293945 15.06035423278809 C 47.79679489135742 15.06035423278809 47.96219635009766 15.06018161773682 48.12579727172852 15.05983448028564 C 61.07585144042969 15.03288841247559 73.24302673339844 13.9534215927124 82.385986328125 12.02028846740723 C 86.78092956542969 11.09104824066162 90.21687316894531 10.02004814147949 92.59837341308594 8.837034225463867 C 94.71331787109375 7.786434650421143 95.87914276123047 6.689994812011719 95.88108825683594 5.749688148498535 C 95.88198089599609 5.317994594573975 95.63474273681641 4.850901126861572 95.146240234375 4.361381530761719 C 94.14170074462891 3.354754447937012 92.18794250488281 2.33560848236084 89.49617004394531 1.414088249206543 C 86.72637176513672 0.4658613204956055 83.22708892822266 -0.3747787475585938 79.09555816650391 -1.084471702575684 C 70.57546234130859 -2.547991752624512 59.76816940307617 -3.353991508483887 48.66447830200195 -3.353991508483887 M 48.66447067260742 -4.353985786437988 C 75.35161590576172 -4.353985786437988 96.89271545410156 0.1491870880126953 96.88108825683594 5.751768112182617 C 96.86940765380859 11.3887414932251 75.04184722900391 16.00382232666016 48.12787628173828 16.05983352661133 C 47.96360778808594 16.06017684936523 47.7974853515625 16.06034851074219 47.63360214233398 16.06034851074219 C 20.94645690917969 16.06034851074219 -0.5946426391601563 11.5571756362915 -0.5830307006835938 5.954594612121582 C -0.57135009765625 0.3176212310791016 21.2562255859375 -4.297457695007324 48.17019653320313 -4.353472709655762 C 48.33446502685547 -4.353814125061035 48.50058746337891 -4.353985786437988 48.66447067260742 -4.353985786437988 Z" stroke="none"/>
      </g>
    </g>
    <text id="Youpe" transform="translate(1867 508)" font-size="161" font-family="Questrial-Regular, Questrial"><tspan x="-234.255" y="0">Youpe</tspan></text>
  </g>
</svg>
